<svg width="106" height="64" viewBox="0 0 106 64" fill="none" xmlns="http://www.w3.org/2000/svg">
<path d="M3.46138 11.9325C3.15541 11.6457 2.80946 11.4047 2.43434 11.2172V11.2172C-1.59981 9.20009 -0.25955 3.13071 4.24887 3.00003L90.5 0.5L100.599 1.18856C106.518 1.59211 107.22 10.0147 101.449 11.3927V11.3927C101.15 11.4641 100.858 11.562 100.577 11.6852L95.7717 13.7874C93.9326 14.592 92.2122 15.6446 90.6585 16.9158L83.8894 22.4542C82.6336 23.4816 81.4954 24.6447 80.4955 25.9224L73 35.5L64.5 49.5L61.6528 55.4316C59.6751 59.552 55.8236 62.4588 51.3189 63.2311V63.2311C45.1912 64.2815 39.0983 61.1966 36.3179 55.6359L29 41L20.3409 28.4443C19.4495 27.1518 18.4224 25.9585 17.2769 24.8846L3.46138 11.9325Z" fill="#183D85"/>
</svg>
